PathFileType        4      (X/Y/Z)      C:\Users\u0101727\OneDrive - KU Leuven\reference_data\TRC\gait_67.trc         																																																																																																																																																																																		
DataRate	CameraRate	NumFrames	NumMarkers	Units	OrigDataRate	OrigDataStartFrame	OrigNumFrames																																																																																																																																																																											
100	100	4	59	m	100	45	352																																																																																																																																																																											
Frame#	Time	LKNE			LTHI2			LANK			foot_l3			foot_l4			foot_l5			foot_l6			foot_l8			RKNE_med			Foot_r1			Foot_r3			RSHO			rad_l2			LW2			rad_r2			RW1			hum_r2			RW2			RH			LTIB1			foot_l1			foot_l2			LTHI3			LTIB3			LTIB2			RTIB2			Foot_r8			RELB			LH			LSHO			LELB			hum_l2			RTIB3			LW1			LTHI1			RANK_med			LANK_med			Foot_r2			RPSI			foot_l9			RTIB1			LPSI			Foot_r4			Foot_r5			Foot_r6			Foot_r7			Foot_r9			RANK			Foot_r10			LASI			RTHI3			LKNE_med			RTHI1			CLAV			RASI			RKNE			RTHI2			foot_l10			foot_l7		
		X1	Y1	Z1	X2	Y2	Z2	X3	Y3	Z3	X4	Y4	Z4	X5	Y5	Z5	X6	Y6	Z6	X7	Y7	Z7	X8	Y8	Z8	X9	Y9	Z9	X10	Y10	Z10	X11	Y11	Z11	X12	Y12	Z12	X13	Y13	Z13	X14	Y14	Z14	X15	Y15	Z15	X16	Y16	Z16	X17	Y17	Z17	X18	Y18	Z18	X19	Y19	Z19	X20	Y20	Z20	X21	Y21	Z21	X22	Y22	Z22	X23	Y23	Z23	X24	Y24	Z24	X25	Y25	Z25	X26	Y26	Z26	X27	Y27	Z27	X28	Y28	Z28	X29	Y29	Z29	X30	Y30	Z30	X31	Y31	Z31	X32	Y32	Z32	X33	Y33	Z33	X34	Y34	Z34	X35	Y35	Z35	X36	Y36	Z36	X37	Y37	Z37	X38	Y38	Z38	X39	Y39	Z39	X40	Y40	Z40	X41	Y41	Z41	X42	Y42	Z42	X43	Y43	Z43	X44	Y44	Z44	X45	Y45	Z45	X46	Y46	Z46	X47	Y47	Z47	X48	Y48	Z48	X49	Y49	Z49	X50	Y50	Z50	X51	Y51	Z51	X52	Y52	Z52	X53	Y53	Z53	X54	Y54	Z54	X55	Y55	Z55	X56	Y56	Z56	X57	Y57	Z57	X58	Y58	Z58	X59	Y59	Z59
45	0.45	-2.002	0.4235	0.10076	-1.8986	0.62726	0.046089	-2.2217	0.094596	0.13294	-2.2273	0.063941	0.14381	-2.202	0.036421	0.13872	-2.1354	0.0044631	0.12853	-2.1115	0.013135	0.17442	-2.0838	0.0093294	0.21386	-1.7325	0.41347	0.20742	-1.6546	0.038846	0.23554	-1.5891	0.059975	0.19484	-1.8663	1.3429	0.38219	-1.836	0.95394	-0.067215	-1.7961	0.84093	-0.085317	-1.924	0.91881	0.49311	-1.8661	0.83549	0.49642	-1.9179	1.1977	0.41336	-1.9322	0.83692	0.51722	-1.8908	0.79054	0.53732	-2.0959	0.25349	0.1132	NaN	NaN	NaN	-2.2984	0.077172	0.17167	-1.8859	0.57271	0.071859	-2.1436	0.22366	0.10406	-2.1523	0.28031	0.088005	NaN	NaN	NaN	-1.4916	0.056161	0.29318	-1.9689	1.0546	0.42846	-1.7337	0.80582	-0.085598	-1.8427	1.345	0.031233	-1.9281	1.0297	-0.044935	-1.8767	1.1947	-0.028072	-1.66	0.21754	0.3171	-1.7452	0.86096	-0.039791	-1.8474	0.61568	0.092669	-1.6092	0.087372	0.19501	-2.2205	0.11413	0.21579	-1.6464	0.0035019	0.23662	-1.975	0.923	0.24677	-2.1707	0.043048	0.22516	-1.646	0.27222	0.31737	-1.9757	0.92915	0.19725	-1.5195	0.084461	0.20503	-1.4655	0.084722	0.20065	-1.4377	0.10036	0.21663	-1.4663	0.082943	0.2531	NaN	NaN	NaN	-1.6102	0.054252	0.27725	NaN	NaN	NaN	NaN	NaN	NaN	NaN	NaN	NaN	NaN	NaN	NaN	NaN	NaN	NaN	NaN	NaN	NaN	NaN	NaN	NaN	NaN	NaN	NaN	NaN	NaN	NaN	NaN	NaN	NaN	NaN	NaN	NaN
46	0.46	-1.9872	0.42165	0.09962	-1.8835	0.62591	0.045619	-2.2168	0.098885	0.13183	-2.2239	0.068537	0.14258	-2.1993	0.039538	0.13792	-2.1344	0.0048165	0.12862	-2.111	0.013185	0.17433	-2.0839	0.0093386	0.21412	-1.7156	0.4122	0.20549	-1.6499	0.035508	0.23385	-1.5841	0.054107	0.19296	-1.8533	1.3416	0.38318	-1.8221	0.95306	-0.066339	-1.7822	0.84001	-0.084976	-1.9095	0.91674	0.49296	-1.8517	0.83362	0.49608	-1.9043	1.1959	0.41381	-1.9178	0.83476	0.51678	-1.8764	0.7883	0.53682	-2.0866	0.25375	0.11164	NaN	NaN	NaN	-2.2944	0.084676	0.17047	-1.8711	0.57145	0.070897	-2.1349	0.22538	0.10287	-2.1424	0.28259	0.086814	-1.6997	0.23925	0.32477	-1.4868	0.049667	0.29061	-1.9546	1.0526	0.42852	-1.72	0.80507	-0.085509	-1.8294	1.3439	0.032072	-1.9143	1.0287	-0.043885	-1.8632	1.1938	-0.027162	-1.6493	0.2144	0.31601	-1.7313	0.86014	-0.039452	-1.8321	0.61416	0.091559	-1.6037	0.081892	0.19277	-2.2151	0.11863	0.2144	-1.6432	1.35E-04	0.23543	-1.9587	0.92142	0.24694	-2.1682	0.045195	0.22443	-1.6339	0.26771	0.3147	-1.9597	0.92774	0.19738	-1.5143	0.077499	0.2023	-1.4603	0.076934	0.19782	-1.4322	0.092224	0.21346	-1.4606	0.075122	0.25044	NaN	NaN	NaN	-1.6048	0.050048	0.27523	NaN	NaN	NaN	NaN	NaN	NaN	NaN	NaN	NaN	NaN	NaN	NaN	NaN	NaN	NaN	NaN	NaN	NaN	NaN	NaN	NaN	NaN	NaN	NaN	NaN	NaN	NaN	NaN	NaN	NaN	NaN	NaN	NaN
47	0.47	-1.9718	0.41964	0.097498	-1.8687	0.62482	0.044483	-2.2117	0.10356	0.13037	-2.2193	0.07344	0.14016	-2.1967	0.043224	0.13697	-2.1332	0.0050585	0.12875	-2.1103	0.013295	0.17412	-2.084	0.0092798	0.21435	-1.6992	0.41079	0.20364	-1.6467	0.03473	0.23137	-1.5808	0.048803	0.19002	-1.8398	1.3399	0.38411	-1.8085	0.95192	-0.065722	-1.7688	0.83907	-0.084764	-1.8946	0.91461	0.49266	-1.8367	0.83149	0.49577	-1.8904	1.1942	0.41442	-1.9029	0.83267	0.51639	-1.8616	0.78622	0.5364	-2.0761	0.25427	0.11005	-2.2712	0.11972	0.16894	-2.2895	0.092802	0.16933	-1.8557	0.57007	0.069604	-2.1266	0.22772	0.1002	-2.131	0.28468	0.085505	-1.6898	0.23691	0.32281	-1.4843	0.041383	0.28873	-1.94	1.0506	0.42875	-1.7065	0.80417	-0.085478	-1.8157	1.3429	0.033275	-1.9008	1.0278	-0.042788	-1.8497	1.1928	-0.026053	-1.6404	0.2105	0.31408	-1.7177	0.85899	-0.03904	-1.8165	0.61262	0.089966	-1.5994	0.077173	0.19039	-2.2088	0.12339	0.21297	-1.6424	-6.08E-04	0.23411	-1.9424	0.92015	0.24696	-2.1654	0.047861	0.22374	-1.6237	0.26275	0.31234	-1.9436	0.92634	0.19745	-1.5103	0.069013	0.19935	-1.4553	0.065851	0.1952	-1.4279	0.081415	0.21072	-1.4557	0.064047	0.24733	NaN	NaN	NaN	-1.6012	0.045739	0.27233	-1.5863	0.026727	0.26399	NaN	NaN	NaN	NaN	NaN	NaN	NaN	NaN	NaN	NaN	NaN	NaN	NaN	NaN	NaN	NaN	NaN	NaN	NaN	NaN	NaN	NaN	NaN	NaN	NaN	NaN	NaN	NaN	NaN	NaN
48	0.48	-1.9555	0.41739	0.095429	-1.8528	0.62336	0.043471	-2.2054	0.10841	0.12893	-2.2149	0.079009	0.139	-2.1933	0.046948	0.13574	-2.1327	0.0061596	0.12792	-2.1093	0.013539	0.17373	-2.0839	0.009308	0.21436	-1.6845	0.40923	0.20215	-1.6408	0.038076	0.22989	-1.5743	0.04617	0.18769	-1.8263	1.3384	0.38528	-1.7957	0.95128	-0.065071	-1.7557	0.83818	-0.084438	-1.8798	0.91279	0.49282	-1.8215	0.82969	0.49537	-1.8764	1.1925	0.41511	-1.8877	0.83057	0.51602	-1.8463	0.78395	0.53565	-2.0645	0.25455	0.1083	-2.2638	0.12767	0.16719	NaN	NaN	NaN	-1.8395	0.56846	0.067494	-2.1162	0.2295	0.098802	-2.1199	0.28695	0.083744	-1.6803	0.23395	0.32005	-1.4778	0.029088	0.28654	-1.9253	1.0487	0.42899	-1.6936	0.80292	-0.085304	-1.8026	1.3421	0.034553	-1.8874	1.0269	-0.041519	-1.8364	1.1919	-0.024878	-1.6319	0.20671	0.31015	-1.7046	0.85777	-0.038845	-1.8004	0.6111	0.087788	-1.5893	0.075044	0.18778	-2.2012	0.12799	0.21125	-1.6397	0.0026359	0.23317	-1.9263	0.91939	0.24704	-2.1622	0.050582	0.22237	-1.614	0.25813	0.30857	-1.9275	0.92519	0.19724	-1.5011	0.059948	0.19702	-1.4464	0.051774	0.19267	-1.418	0.06402	0.21258	-1.4475	0.049898	0.24721	NaN	NaN	NaN	-1.5955	0.046221	0.27108	-1.5806	0.027024	0.26281	NaN	NaN	NaN	NaN	NaN	NaN	NaN	NaN	NaN	NaN	NaN	NaN	NaN	NaN	NaN	NaN	NaN	NaN	NaN	NaN	NaN	NaN	NaN	NaN	NaN	NaN	NaN	NaN	NaN	NaN
